<svg width="24" height="24" viewBox="0 0 24 24" fill="none" xmlns="http://www.w3.org/2000/svg">
<path d="M2 19C2 18.4477 2.44772 18 3 18H17C17.5523 18 18 18.4477 18 19C18 19.5523 17.5523 20 17 20H3C2.44772 20 2 19.5523 2 19Z" fill="#504F4F"/>
<path fill-rule="evenodd" clip-rule="evenodd" d="M4 4C2.89543 4 2 4.89543 2 6V8C2 12.4183 5.58172 16 10 16C12.5264 16 14.7793 14.8289 16.2454 13H18.5C20.433 13 22 11.433 22 9.5C22 7.567 20.433 6 18.5 6H18C18 4.89543 17.1046 4 16 4H4ZM18 8C18 9.0609 17.7935 10.0736 17.4185 11H18.5C19.3284 11 20 10.3284 20 9.5C20 8.67157 19.3284 8 18.5 8H18Z" fill="#504F4F"/>
</svg>
