<svg width="25" height="24" viewBox="0 0 25 24" fill="none" xmlns="http://www.w3.org/2000/svg">
<path fill-rule="evenodd" clip-rule="evenodd" d="M22.5 12C22.5 16.9964 18.8357 21.1369 14.0479 21.8809C13.7558 21.9263 13.5 21.6942 13.5 21.3985V14H15.5C16.0523 14 16.5 13.5523 16.5 13C16.5 12.4477 16.0523 12 15.5 12H13.5V10C13.5 9.44772 13.9477 9 14.5 9H15.5C16.0523 9 16.5 8.55228 16.5 8C16.5 7.44772 16.0523 7 15.5 7H14.5C12.8431 7 11.5 8.34315 11.5 10V12H10.5C9.94772 12 9.5 12.4477 9.5 13C9.5 13.5523 9.94772 14 10.5 14H11.5V21.3985C11.5 21.6942 11.2442 21.9263 10.9521 21.8809C6.16427 21.1369 2.5 16.9964 2.5 12C2.5 6.47715 6.97715 2 12.5 2C18.0228 2 22.5 6.47715 22.5 12Z" fill="#7D7C7C"/>
</svg>
