<svg width="20" height="24" viewBox="0 0 20 24" fill="none" xmlns="http://www.w3.org/2000/svg">
<path d="M6.26095 5.86114C7.10817 5.84215 7.82904 6.12733 8.552 6.40364C8.78629 6.49307 9.01933 6.5863 9.25027 6.68501C9.85985 6.9453 10.459 6.9377 11.074 6.67911C11.8183 6.36609 12.5584 6.01554 13.3604 5.88898C15.5574 5.54222 17.3991 6.18765 18.8165 7.95479C18.9328 8.09948 18.9517 8.19187 18.7701 8.32011C17.8338 8.98073 17.1083 9.8295 16.7443 10.9297C16.1372 12.766 16.374 14.4893 17.566 16.0379C18.0735 16.6972 18.7207 17.1929 19.4721 17.5426C19.6198 17.6114 19.5533 17.6966 19.5261 17.7818C19.2454 18.669 18.8672 19.514 18.3936 20.3108C17.8421 21.2385 17.2556 22.145 16.4941 22.9179C15.38 24.0489 14.1608 24.2632 12.7182 23.5966C12.2304 23.3714 11.7401 23.1528 11.2033 23.071C10.2473 22.9255 9.3327 23.0638 8.45452 23.4713C7.9989 23.6827 7.53366 23.8654 7.03537 23.9573C6.21074 24.11 5.51372 23.8396 4.88448 23.3288C4.07533 22.6719 3.49211 21.8215 2.92144 20.9647C1.69056 19.1174 0.937898 17.0811 0.589805 14.8879C0.481863 14.2079 0.421616 13.5228 0.437097 12.8348C0.466383 11.5304 0.683941 10.264 1.29645 9.09716C2.11564 7.53758 3.34609 6.47662 5.05601 6.02102C5.46686 5.91134 5.88692 5.84679 6.26095 5.86114Z" fill="white"/>
<path d="M9.95352 4.88161C9.98281 3.84892 10.4116 2.84913 11.1049 1.96493C11.8735 0.984119 12.8822 0.364841 14.0884 0.0750283C14.149 0.0602635 14.2118 0.0552013 14.2729 0.0425457C14.785 -0.0646047 14.7264 0.0206094 14.7239 0.4239C14.7159 1.6865 14.2867 2.80188 13.511 3.77973C12.7864 4.69304 11.8684 5.30557 10.7074 5.50637C10.6392 5.51818 10.5694 5.52789 10.5003 5.52746C9.85688 5.52493 9.97737 5.64094 9.95352 4.88161Z" fill="white"/>
</svg>
