<svg width="20" height="24" viewBox="0 0 20 24" fill="none" xmlns="http://www.w3.org/2000/svg">
<path d="M2.27567 0.248037C2.60397 0.458145 2.9326 0.668253 3.26091 0.878362C3.28681 0.90623 3.31552 0.929402 3.35515 0.933785C3.47031 1.03023 3.60139 1.10256 3.73152 1.17615C4.00772 1.36778 4.29202 1.54658 4.58195 1.71629C4.65528 1.77704 4.73299 1.83089 4.82162 1.86784C4.89777 1.93924 4.98765 1.9884 5.08128 2.03161C5.40615 2.25706 5.74102 2.46717 6.07931 2.67133C6.11333 2.70233 6.14703 2.73395 6.19478 2.74241C6.2856 2.82288 6.39202 2.87831 6.49719 2.93655C6.65198 3.04583 6.8074 3.15354 6.97623 3.24059C6.98591 3.2694 7.01056 3.27285 7.03553 3.27535C7.1407 3.3696 7.26553 3.43348 7.38787 3.50112C7.72086 3.72907 8.06072 3.94638 8.40837 4.15148C8.56441 4.25262 8.72014 4.35376 8.87618 4.45521C9.16236 4.6362 9.44885 4.8175 9.73503 4.99849C9.8118 5.06393 9.89638 5.11654 9.98844 5.15725C10.0615 5.22488 10.1435 5.2778 10.2365 5.31318C10.5533 5.53613 10.8797 5.74436 11.2159 5.93693C11.2702 5.98922 11.3301 6.03306 11.4019 6.05843C11.4849 6.13546 11.5854 6.18462 11.6821 6.23973C11.8207 6.32803 11.9592 6.41633 12.0975 6.50463C12.1346 6.52686 12.1721 6.54878 12.2092 6.57102C12.3113 6.65525 12.4196 6.72946 12.5413 6.78206C12.8696 7.01315 13.2113 7.22326 13.5533 7.43274C13.5733 7.44433 13.5936 7.45591 13.6136 7.46719C13.7484 7.55455 13.8832 7.6416 14.018 7.72896C14.3073 7.92435 14.6004 8.11348 14.9028 8.28758C14.9549 8.32641 15.0073 8.36492 15.0594 8.40375C15.0139 8.45573 14.9683 8.50802 14.9228 8.56C14.8294 8.65269 14.7358 8.74568 14.6425 8.83837C14.582 8.87751 14.5339 8.92949 14.4918 8.98742C14.3635 9.0967 14.2405 9.2113 14.131 9.33969C14.0842 9.36849 14.0464 9.40638 14.0177 9.45335C13.8994 9.57171 13.7815 9.69039 13.6632 9.80875C13.6164 9.83756 13.5786 9.87545 13.5499 9.92242C13.4113 10.0257 13.2978 10.1551 13.1823 10.2819C13.1405 10.3041 13.1086 10.3361 13.0865 10.378C12.9457 10.487 12.8278 10.6185 12.7085 10.7494C12.667 10.791 12.6255 10.8327 12.584 10.8743C12.5425 10.9122 12.4998 10.9485 12.4595 10.9877C12.3094 11.1345 12.3097 11.1348 12.1518 10.9955C12.08 10.9031 11.9979 10.8211 11.9059 10.7488C11.8319 10.6745 11.7579 10.6003 11.684 10.5261C11.6122 10.4338 11.5301 10.3514 11.4381 10.2794C11.3641 10.2052 11.2901 10.131 11.2162 10.0567C11.1444 9.96438 11.0623 9.88202 10.9702 9.81C10.8963 9.73579 10.8223 9.66158 10.7484 9.58737C10.6766 9.495 10.5945 9.41265 10.5024 9.34063C10.4285 9.26641 10.3545 9.1922 10.2805 9.11799C10.2088 9.02562 10.1267 8.94327 10.0346 8.87125C9.96067 8.79704 9.8867 8.72283 9.81274 8.64861C9.74096 8.55624 9.65888 8.47389 9.56682 8.40187C9.49286 8.32766 9.41889 8.25345 9.34493 8.17924C9.27315 8.08686 9.19107 8.00451 9.09901 7.93249C9.02505 7.85828 8.95108 7.78407 8.87712 7.70986C8.80534 7.61749 8.72326 7.53513 8.6312 7.46312C8.55724 7.3889 8.48327 7.31469 8.40931 7.24048C8.33753 7.14811 8.25545 7.06576 8.16339 6.99374C8.10066 6.9308 8.03825 6.86817 7.97552 6.80523C7.89219 6.70159 7.79888 6.60828 7.69558 6.52436C7.62162 6.45015 7.54765 6.37594 7.47369 6.30173C7.40191 6.20935 7.31983 6.127 7.22777 6.05498C7.15381 5.98077 7.07984 5.90656 7.00588 5.83235C6.9341 5.73998 6.85202 5.65794 6.75996 5.5856C6.686 5.51139 6.61203 5.43718 6.53807 5.36297C6.46629 5.2706 6.38421 5.18825 6.29215 5.11623C6.21819 5.04202 6.14422 4.9678 6.07026 4.89359C5.99848 4.80122 5.9164 4.71887 5.82434 4.64685C5.75038 4.57264 5.67641 4.49843 5.60245 4.42421C5.53067 4.33184 5.4486 4.24949 5.35653 4.17747C5.28257 4.10326 5.2086 4.02905 5.13464 3.95484C5.06286 3.86246 4.98079 3.78011 4.88872 3.70809C4.81476 3.63388 4.74079 3.55967 4.66683 3.48546C4.59505 3.39309 4.51298 3.31073 4.42091 3.23872C4.34695 3.1645 4.27298 3.09029 4.19902 3.01608C4.12724 2.92371 4.04517 2.84136 3.9531 2.76934C3.87914 2.69513 3.80518 2.62092 3.73121 2.5467C3.65943 2.45433 3.57736 2.37198 3.48529 2.29996C3.41133 2.22575 3.33737 2.15154 3.2634 2.07733C3.19162 1.98495 3.10955 1.9026 3.01748 1.83058C2.94352 1.75637 2.86956 1.68216 2.79559 1.60795C2.72381 1.51558 2.64174 1.43322 2.54967 1.3612C2.47571 1.28699 2.40175 1.21278 2.32778 1.13857C2.256 1.0462 2.17393 0.963846 2.08186 0.891826C2.0079 0.817615 1.93394 0.743404 1.85997 0.669193C1.78819 0.57682 1.70612 0.494781 1.61436 0.422762C1.5404 0.348551 1.46644 0.274339 1.39248 0.200128C1.3569 0.138129 1.30135 0.0964831 1.233 0.052019C1.54259 -0.0353435 1.82876 -0.0184346 2.09934 0.146897C2.15832 0.185411 2.21762 0.215785 2.27567 0.248037Z" fill="white"/>
<path d="M2.79621 23.4214C2.62269 23.5325 2.44949 23.6437 2.27597 23.7545C2.2226 23.7733 2.1761 23.8024 2.13803 23.845C2.03442 23.8882 1.9305 23.9314 1.82689 23.9747C1.786 23.9803 1.74512 23.9862 1.70424 23.9919C1.58565 24.0072 1.46768 23.9997 1.35034 23.9794C1.29011 23.969 1.24704 23.9512 1.30883 23.8864C1.35783 23.8547 1.39871 23.8153 1.42867 23.7649C1.53197 23.6612 1.63496 23.5579 1.73825 23.4542C1.80098 23.4113 1.85372 23.3587 1.89648 23.2958C1.99978 23.1922 2.10277 23.0888 2.20606 22.9852C2.26879 22.9423 2.32153 22.8897 2.36429 22.8267C2.46759 22.7231 2.57057 22.6198 2.67387 22.5161C2.7366 22.4732 2.78934 22.4206 2.8321 22.3577C2.94851 22.2412 3.06522 22.1247 3.18163 22.0082C3.23 21.9772 3.27057 21.9384 3.29991 21.8886C3.40321 21.785 3.50651 21.6816 3.60949 21.578C3.67222 21.5351 3.72496 21.4825 3.76772 21.4195C3.87102 21.3159 3.974 21.2126 4.0773 21.1089C4.14003 21.0663 4.19277 21.0134 4.23522 20.9505C4.33852 20.8468 4.44181 20.7435 4.5448 20.6399C4.60753 20.597 4.66027 20.5443 4.70303 20.4814C4.81943 20.3649 4.93615 20.2484 5.05256 20.132C5.10093 20.101 5.1415 20.0621 5.17084 20.0123C5.27413 19.9087 5.37743 19.8054 5.48042 19.7017C5.54315 19.6591 5.59589 19.6062 5.63833 19.5433C5.74163 19.4396 5.84493 19.3363 5.94792 19.2327C6.01065 19.1901 6.06339 19.1372 6.10583 19.0742C6.20913 18.9706 6.31243 18.8672 6.41542 18.7636C6.47814 18.7207 6.53089 18.6681 6.57364 18.6052C6.69005 18.4887 6.80677 18.3722 6.92317 18.2557C6.97154 18.2247 7.01212 18.1859 7.04145 18.1361C7.14475 18.0324 7.24805 17.9291 7.35104 17.8255C7.41376 17.7826 7.46651 17.73 7.50926 17.667C7.61256 17.5634 7.71555 17.46 7.81884 17.3564C7.88157 17.3135 7.93432 17.2609 7.97707 17.198C8.08037 17.0943 8.18336 16.991 8.28665 16.8873C8.34938 16.8444 8.40212 16.7918 8.44488 16.7289C8.56129 16.6124 8.678 16.4959 8.79441 16.3794C8.84278 16.3484 8.88335 16.3096 8.91269 16.2598C9.01599 16.1562 9.11929 16.0529 9.22227 15.9492C9.285 15.9063 9.33774 15.8537 9.3805 15.7908C9.4838 15.6871 9.58678 15.5838 9.69008 15.4801C9.75281 15.4372 9.80555 15.3846 9.84831 15.3217C9.95161 15.2181 10.0546 15.1147 10.1579 15.0111C10.2206 14.9682 10.2734 14.9156 10.3161 14.8526C10.4325 14.7362 10.5492 14.6197 10.6656 14.5032C10.714 14.4722 10.7546 14.4334 10.7839 14.3836C10.8872 14.2799 10.9905 14.1766 11.0935 14.0729C11.1562 14.03 11.209 13.9774 11.2517 13.9145C11.355 13.8109 11.458 13.7075 11.5613 13.6039C11.6241 13.5613 11.6768 13.5084 11.7192 13.4454C11.8225 13.3418 11.9258 13.2385 12.0288 13.1348C12.0915 13.0922 12.144 13.0393 12.1867 12.9764C12.2729 12.8624 12.3387 12.8918 12.4317 12.9848C12.7969 13.3499 13.1523 13.7254 13.538 14.0695C13.6885 14.2201 13.8389 14.3707 13.989 14.5217C14.1363 14.6911 14.3005 14.8432 14.4665 14.9939C14.6188 15.1564 14.7723 15.3176 14.9433 15.4607C15.0582 15.5584 15.0654 15.6423 14.9131 15.7072C14.909 15.709 14.9065 15.7147 14.9034 15.7187C14.8138 15.7676 14.7205 15.8105 14.6456 15.8831C14.5651 15.9335 14.4849 15.9836 14.4044 16.0341C14.1354 16.1922 13.8701 16.3563 13.6164 16.5385C13.5917 16.5513 13.5668 16.5645 13.5421 16.5773C13.5368 16.5786 13.5324 16.5817 13.5293 16.5858C13.4123 16.6628 13.2949 16.7395 13.1779 16.8166C13.1376 16.8228 13.1058 16.8419 13.0855 16.8783C12.7566 17.0862 12.428 17.2938 12.099 17.5017C11.9677 17.5859 11.836 17.6702 11.7046 17.7541C11.6721 17.7757 11.6397 17.7973 11.6072 17.8189C11.4668 17.8872 11.3366 17.9714 11.2155 18.07C11.1054 18.1139 11.0114 18.1831 10.9206 18.2573C10.8451 18.2883 10.773 18.3252 10.7146 18.3841C10.3885 18.592 10.0627 18.7999 9.73658 19.0075C9.64951 19.0492 9.56868 19.1005 9.49597 19.1647C9.42357 19.1882 9.36489 19.2336 9.30872 19.2828C9.0007 19.4597 8.70079 19.6501 8.40899 19.8533C8.25357 19.935 8.10814 20.0321 7.96677 20.1354C7.95585 20.1326 7.94742 20.136 7.94149 20.1454C7.61069 20.3568 7.27114 20.5547 6.95282 20.7855C6.80208 20.8515 6.67007 20.947 6.539 21.0444C6.51029 21.0629 6.48158 21.081 6.45318 21.0995C6.31961 21.1734 6.18541 21.2458 6.06807 21.345C5.95322 21.3982 5.84899 21.4684 5.75162 21.5485C5.68858 21.5871 5.62523 21.6253 5.56219 21.6638C5.23606 21.8717 4.91025 22.0796 4.58412 22.2875C4.49861 22.3251 4.42309 22.3783 4.35225 22.4385C4.2786 22.4738 4.2065 22.5114 4.14658 22.569C3.84387 22.7375 3.55862 22.9338 3.26808 23.122C3.1164 23.2206 2.96505 23.3196 2.81337 23.4182L2.80308 23.4157L2.79621 23.4214Z" fill="white"/>
<path d="M0.364087 0.990706C0.388117 0.978807 0.373137 0.899899 0.431808 0.949373C0.463328 0.975989 0.490167 1.00855 0.519503 1.03799C4.12123 4.65085 7.72234 8.26402 11.3263 11.8744C11.4189 11.9674 11.4542 12.0334 11.3381 12.1224C11.2754 12.1653 11.2226 12.2182 11.1799 12.2811C11.0635 12.3976 10.9468 12.5141 10.8304 12.6306C10.782 12.6616 10.7414 12.7004 10.7121 12.7502C10.6088 12.8538 10.5055 12.9572 10.4025 13.0608C10.3398 13.1037 10.287 13.1563 10.2443 13.2193C10.1279 13.3357 10.0111 13.4522 9.89474 13.5687C9.84636 13.5997 9.80579 13.6385 9.77646 13.6883C9.67316 13.792 9.56986 13.8953 9.46687 13.9989C9.40415 14.0418 9.3514 14.0945 9.30865 14.1574C9.19224 14.2739 9.07552 14.3904 8.95912 14.5068C8.91074 14.5378 8.87017 14.5767 8.84084 14.6265C8.73754 14.7301 8.63424 14.8334 8.53125 14.9371C8.46853 14.98 8.41578 15.0326 8.37303 15.0955C8.25662 15.212 8.1399 15.3285 8.0235 15.445C7.97512 15.476 7.93455 15.5148 7.90522 15.5646C7.80192 15.6682 7.69862 15.7716 7.59563 15.8752C7.53291 15.9181 7.48016 15.9707 7.43741 16.0336C7.321 16.1501 7.20428 16.2666 7.08788 16.3831C7.03951 16.4141 6.99893 16.4529 6.9696 16.5027C6.8663 16.6064 6.763 16.7097 6.66001 16.8133C6.59729 16.8562 6.54454 16.9088 6.50179 16.9718C6.38538 17.0883 6.26866 17.2047 6.15226 17.3212C6.10389 17.3522 6.06331 17.3911 6.03398 17.4408C5.93068 17.5445 5.82738 17.6478 5.72439 17.7515C5.66167 17.7944 5.60892 17.847 5.56617 17.9099C5.44976 18.0264 5.33304 18.1429 5.21664 18.2594C5.16827 18.2904 5.1277 18.3292 5.09836 18.379C4.99506 18.4826 4.89176 18.5859 4.78877 18.6896C4.72605 18.7325 4.6733 18.7851 4.63055 18.848C4.51414 18.9645 4.39742 19.081 4.28102 19.1975C4.23265 19.2285 4.19208 19.2673 4.16274 19.3171C4.05944 19.4207 3.95614 19.5241 3.85316 19.6277C3.79043 19.6706 3.73769 19.7232 3.69493 19.7862C3.57852 19.9026 3.46181 20.0191 3.3454 20.1356C3.29703 20.1666 3.25646 20.2054 3.22712 20.2552C3.12382 20.3589 3.02052 20.4622 2.91754 20.5659C2.85481 20.6087 2.80207 20.6614 2.75931 20.7243C2.6429 20.8408 2.52619 20.9573 2.40978 21.0737C2.36141 21.1047 2.32084 21.1436 2.2915 21.1934C2.1882 21.297 2.0849 21.4003 1.98192 21.504C1.91919 21.5469 1.86645 21.5995 1.82369 21.6624C1.70728 21.7789 1.59057 21.8954 1.47416 22.0119C1.42579 22.0429 1.38522 22.0817 1.35588 22.1315C1.25258 22.2351 1.14928 22.3385 1.0463 22.4421C0.983568 22.4847 0.930826 22.5376 0.888383 22.6006C0.771977 22.717 0.655258 22.8335 0.538852 22.95C0.490792 22.9813 0.449285 23.0189 0.422446 23.0706C0.316026 22.9838 0.356285 22.8623 0.356285 22.7559C0.35566 15.5862 0.355973 8.41401 0.355973 1.24152C0.355973 1.1789 0.357845 1.11658 0.359093 1.05396C0.360654 1.03298 0.362214 1.012 0.364087 0.990706Z" fill="white"/>
<path d="M19.1342 11.0012C19.214 11.0732 19.2943 11.1452 19.3741 11.2175C19.5923 11.5056 19.6847 11.8281 19.6407 12.1885C19.6366 12.2227 19.6325 12.2571 19.6285 12.2916C19.5882 12.3921 19.548 12.4926 19.508 12.5928C19.3951 12.7453 19.2836 12.8981 19.1189 13.002C18.9766 13.0919 18.8386 13.189 18.6988 13.2829C18.5683 13.3578 18.437 13.4304 18.3221 13.5294C18.2825 13.5334 18.2541 13.5569 18.2282 13.5845C17.8889 13.8049 17.5497 14.025 17.2105 14.2455C17.0832 14.3056 16.9658 14.3817 16.8578 14.4719C16.8297 14.4903 16.8017 14.5088 16.7736 14.5273C16.6466 14.5868 16.5301 14.6626 16.4225 14.7524C16.3978 14.7653 16.3729 14.7784 16.3482 14.7913C16.3426 14.7925 16.3382 14.7956 16.3351 14.8003C16.2015 14.8774 16.0711 15.0333 15.9269 14.8154C15.8298 14.7048 15.7337 14.594 15.6176 14.5022C15.5527 14.4365 15.4875 14.3704 15.4226 14.3047C15.3349 14.2135 15.2475 14.1224 15.1598 14.0313C15.0936 13.9649 15.0272 13.8982 14.961 13.8318C14.8805 13.7326 14.7909 13.6424 14.692 13.5619C14.6258 13.4955 14.5597 13.4292 14.4935 13.3625C14.3028 13.1505 14.1093 12.941 13.8949 12.7528C13.8643 12.7224 13.8341 12.6917 13.8035 12.6614C13.7935 12.6498 13.7832 12.6385 13.7732 12.6269C13.723 12.5527 13.6578 12.4935 13.5885 12.4378C13.4845 12.3326 13.3803 12.2274 13.2764 12.1222C13.1656 12.037 13.1778 11.9606 13.2848 11.8785C13.3407 11.8356 13.3828 11.7752 13.4312 11.7226C13.4933 11.6797 13.5457 11.6268 13.5885 11.5648C13.7092 11.4568 13.8269 11.3459 13.9289 11.2194C13.9598 11.1872 13.9907 11.1549 14.0216 11.1227C14.1565 10.9968 14.296 10.8756 14.4064 10.7259L14.4036 10.7287C14.427 10.7059 14.4504 10.6827 14.4738 10.6599C14.4804 10.6533 14.4873 10.6464 14.4938 10.6398C14.6118 10.5215 14.7301 10.4031 14.848 10.2844C14.8948 10.2556 14.9326 10.2177 14.9616 10.1704C15.0796 10.0521 15.1979 9.93371 15.3158 9.81504C15.3514 9.7759 15.387 9.73707 15.4229 9.69793C15.5399 9.57988 15.6569 9.46183 15.774 9.34378C15.8161 9.29994 15.8579 9.25642 15.9001 9.21258C16.0892 9.05007 16.0889 9.05007 16.3079 9.1869C16.3248 9.19755 16.3432 9.20538 16.361 9.21446C16.4094 9.25204 16.4549 9.29462 16.5167 9.3109C16.6116 9.39013 16.7146 9.45682 16.8257 9.51099C16.9449 9.60712 17.0725 9.6901 17.2105 9.7568C17.2564 9.78748 17.3022 9.81786 17.3481 9.84854C17.4539 9.93277 17.5666 10.0057 17.6877 10.0655C18.025 10.2838 18.3624 10.5017 18.6997 10.72C18.7103 10.7447 18.7309 10.7522 18.7559 10.7522C18.8711 10.8512 19.0028 10.926 19.1342 11.0012Z" fill="white"/>
</svg>
