<svg width="24" height="24" viewBox="0 0 24 24" fill="none" xmlns="http://www.w3.org/2000/svg">
<path d="M7.50668 15.3511C7.26153 14.6974 7.74481 14 8.44301 14H15.557C16.2552 14 16.7385 14.6974 16.4933 15.3511L14.7023 20.1273C14.2799 21.2538 13.203 22 12 22C10.797 22 9.72017 21.2538 9.29777 20.1273L7.50668 15.3511Z" fill="#504F4F"/>
<path fill-rule="evenodd" clip-rule="evenodd" d="M16.9754 6.5007C17.0026 6.7755 17.2239 7 17.5 7C18.8807 7 20 8.11929 20 9.5C20 10.8807 18.8807 12 17.5 12H12H6.5C5.11929 12 4 10.8807 4 9.5C4 8.11929 5.11929 7 6.5 7C6.77614 7 6.99737 6.7755 7.02462 6.5007C7.27516 3.9737 9.40709 2 12 2C14.5929 2 16.7248 3.9737 16.9754 6.5007Z" fill="#504F4F"/>
</svg>
