<svg width="25" height="24" viewBox="0 0 25 24" fill="none" xmlns="http://www.w3.org/2000/svg">
<path fill-rule="evenodd" clip-rule="evenodd" d="M12.5 22C18.0228 22 22.5 17.5228 22.5 12C22.5 6.47715 18.0228 2 12.5 2C6.97715 2 2.5 6.47715 2.5 12C2.5 14.2512 3.24389 16.3287 4.49927 18L4.49977 20.7708C4.49989 21.4049 5.08261 21.8788 5.70344 21.7497L8.5 21.1679C9.72492 21.7031 11.0778 22 12.5 22ZM7.20509 13.707L9.95568 9.7776C10.2608 9.34174 10.8537 9.22109 11.3049 9.50307L13.9525 11.1578C14.2858 11.3661 14.7102 11.3599 15.0372 11.1419L17.2092 9.69385C17.3783 9.58113 17.6034 9.60343 17.7471 9.74711C17.8934 9.89337 17.9135 10.1235 17.7949 10.293L15.0443 14.2224C14.7392 14.6583 14.1463 14.7789 13.6951 14.4969L11.0475 12.8422C10.7142 12.6339 10.2898 12.6401 9.9628 12.8581L7.79077 14.3062C7.6217 14.4189 7.39657 14.3966 7.25289 14.2529C7.10663 14.1066 7.08647 13.8765 7.20509 13.707Z" fill="#7D7C7C"/>
</svg>
