<svg width="24" height="24" viewBox="0 0 24 24" fill="none" xmlns="http://www.w3.org/2000/svg">
<path d="M3 17.8C3 17.3582 3.35817 17 3.8 17H20.2C20.6418 17 21 17.3582 21 17.8C21 19.5673 19.5673 21 17.8 21H6.2C4.43269 21 3 19.5673 3 17.8Z" fill="#504F4F"/>
<path fill-rule="evenodd" clip-rule="evenodd" d="M3.8 17C3.35817 17 3 17.3582 3 17.8C3 19.5673 4.43269 21 6.2 21H17.8C19.5673 21 21 19.5673 21 17.8C21 17.3582 20.6418 17 20.2 17H3.8Z" fill="#504F4F"/>
<path fill-rule="evenodd" clip-rule="evenodd" d="M14.6785 7.35254C14.8842 6.94614 15 6.4866 15 6C15 4.34315 13.6569 3 12 3C10.3431 3 9 4.34315 9 6C9 6.4866 9.11585 6.94614 9.32147 7.35254C6.23647 8.32706 4 11.2119 4 14.619C4 14.8294 4.17056 15 4.38095 15H19.619C19.8294 15 20 14.8294 20 14.619C20 11.2119 17.7635 8.32706 14.6785 7.35254ZM13 6C13 6.55228 12.5523 7 12 7C11.4477 7 11 6.55228 11 6C11 5.44772 11.4477 5 12 5C12.5523 5 13 5.44772 13 6Z" fill="#504F4F"/>
</svg>
